<?xml version="1.0" encoding="utf-8" standalone="no"?>
<!DOCTYPE svg PUBLIC "-//W3C//DTD SVG 1.1//EN"
  "http://www.w3.org/Graphics/SVG/1.1/DTD/svg11.dtd">
<!-- Created with matplotlib (https://matplotlib.org/) -->
<svg height="345.6pt" version="1.1" viewBox="0 0 460.8 345.6" width="460.8pt" xmlns="http://www.w3.org/2000/svg" xmlns:xlink="http://www.w3.org/1999/xlink">
 <defs>
  <style type="text/css">
*{stroke-linecap:butt;stroke-linejoin:round;}
  </style>
 </defs>
 <g id="figure_1">
  <g id="patch_1">
   <path d="M 0 345.6 
L 460.8 345.6 
L 460.8 0 
L 0 0 
z
" style="fill:#ffffff;"/>
  </g>
  <g id="axes_1">
   <g id="patch_2">
    <path d="M 38.27 303.64 
L 450 303.64 
L 450 14.76 
L 38.27 14.76 
z
" style="fill:#ffffff;"/>
   </g>
   <g id="matplotlib.axis_1">
    <g id="xtick_1">
     <g id="line2d_1">
      <defs>
       <path d="M 0 0 
L 0 3.5 
" id="md2483ddef1" style="stroke:#000000;stroke-width:0.8;"/>
      </defs>
      <g>
       <use style="stroke:#000000;stroke-width:0.8;" x="56.775308" xlink:href="#md2483ddef1" y="303.64"/>
      </g>
     </g>
     <g id="text_1">
      <!-- 0 -->
      <defs>
       <path d="M 31.78125 66.40625 
Q 24.171875 66.40625 20.328125 58.90625 
Q 16.5 51.421875 16.5 36.375 
Q 16.5 21.390625 20.328125 13.890625 
Q 24.171875 6.390625 31.78125 6.390625 
Q 39.453125 6.390625 43.28125 13.890625 
Q 47.125 21.390625 47.125 36.375 
Q 47.125 51.421875 43.28125 58.90625 
Q 39.453125 66.40625 31.78125 66.40625 
z
M 31.78125 74.21875 
Q 44.046875 74.21875 50.515625 64.515625 
Q 56.984375 54.828125 56.984375 36.375 
Q 56.984375 17.96875 50.515625 8.265625 
Q 44.046875 -1.421875 31.78125 -1.421875 
Q 19.53125 -1.421875 13.0625 8.265625 
Q 6.59375 17.96875 6.59375 36.375 
Q 6.59375 54.828125 13.0625 64.515625 
Q 19.53125 74.21875 31.78125 74.21875 
z
" id="DejaVuSans-48"/>
      </defs>
      <g transform="translate(53.594058 318.238437)scale(0.1 -0.1)">
       <use xlink:href="#DejaVuSans-48"/>
      </g>
     </g>
    </g>
    <g id="xtick_2">
     <g id="line2d_2">
      <g>
       <use style="stroke:#000000;stroke-width:0.8;" x="109.198277" xlink:href="#md2483ddef1" y="303.64"/>
      </g>
     </g>
     <g id="text_2">
      <!-- 250 -->
      <defs>
       <path d="M 19.1875 8.296875 
L 53.609375 8.296875 
L 53.609375 0 
L 7.328125 0 
L 7.328125 8.296875 
Q 12.9375 14.109375 22.625 23.890625 
Q 32.328125 33.6875 34.8125 36.53125 
Q 39.546875 41.84375 41.421875 45.53125 
Q 43.3125 49.21875 43.3125 52.78125 
Q 43.3125 58.59375 39.234375 62.25 
Q 35.15625 65.921875 28.609375 65.921875 
Q 23.96875 65.921875 18.8125 64.3125 
Q 13.671875 62.703125 7.8125 59.421875 
L 7.8125 69.390625 
Q 13.765625 71.78125 18.9375 73 
Q 24.125 74.21875 28.421875 74.21875 
Q 39.75 74.21875 46.484375 68.546875 
Q 53.21875 62.890625 53.21875 53.421875 
Q 53.21875 48.921875 51.53125 44.890625 
Q 49.859375 40.875 45.40625 35.40625 
Q 44.1875 33.984375 37.640625 27.21875 
Q 31.109375 20.453125 19.1875 8.296875 
z
" id="DejaVuSans-50"/>
       <path d="M 10.796875 72.90625 
L 49.515625 72.90625 
L 49.515625 64.59375 
L 19.828125 64.59375 
L 19.828125 46.734375 
Q 21.96875 47.46875 24.109375 47.828125 
Q 26.265625 48.1875 28.421875 48.1875 
Q 40.625 48.1875 47.75 41.5 
Q 54.890625 34.8125 54.890625 23.390625 
Q 54.890625 11.625 47.5625 5.09375 
Q 40.234375 -1.421875 26.90625 -1.421875 
Q 22.3125 -1.421875 17.546875 -0.640625 
Q 12.796875 0.140625 7.71875 1.703125 
L 7.71875 11.625 
Q 12.109375 9.234375 16.796875 8.0625 
Q 21.484375 6.890625 26.703125 6.890625 
Q 35.15625 6.890625 40.078125 11.328125 
Q 45.015625 15.765625 45.015625 23.390625 
Q 45.015625 31 40.078125 35.4375 
Q 35.15625 39.890625 26.703125 39.890625 
Q 22.75 39.890625 18.8125 39.015625 
Q 14.890625 38.140625 10.796875 36.28125 
z
" id="DejaVuSans-53"/>
      </defs>
      <g transform="translate(99.654527 318.238437)scale(0.1 -0.1)">
       <use xlink:href="#DejaVuSans-50"/>
       <use x="63.623047" xlink:href="#DejaVuSans-53"/>
       <use x="127.246094" xlink:href="#DejaVuSans-48"/>
      </g>
     </g>
    </g>
    <g id="xtick_3">
     <g id="line2d_3">
      <g>
       <use style="stroke:#000000;stroke-width:0.8;" x="161.621246" xlink:href="#md2483ddef1" y="303.64"/>
      </g>
     </g>
     <g id="text_3">
      <!-- 500 -->
      <g transform="translate(152.077496 318.238437)scale(0.1 -0.1)">
       <use xlink:href="#DejaVuSans-53"/>
       <use x="63.623047" xlink:href="#DejaVuSans-48"/>
       <use x="127.246094" xlink:href="#DejaVuSans-48"/>
      </g>
     </g>
    </g>
    <g id="xtick_4">
     <g id="line2d_4">
      <g>
       <use style="stroke:#000000;stroke-width:0.8;" x="214.044216" xlink:href="#md2483ddef1" y="303.64"/>
      </g>
     </g>
     <g id="text_4">
      <!-- 750 -->
      <defs>
       <path d="M 8.203125 72.90625 
L 55.078125 72.90625 
L 55.078125 68.703125 
L 28.609375 0 
L 18.3125 0 
L 43.21875 64.59375 
L 8.203125 64.59375 
z
" id="DejaVuSans-55"/>
      </defs>
      <g transform="translate(204.500466 318.238437)scale(0.1 -0.1)">
       <use xlink:href="#DejaVuSans-55"/>
       <use x="63.623047" xlink:href="#DejaVuSans-53"/>
       <use x="127.246094" xlink:href="#DejaVuSans-48"/>
      </g>
     </g>
    </g>
    <g id="xtick_5">
     <g id="line2d_5">
      <g>
       <use style="stroke:#000000;stroke-width:0.8;" x="266.467185" xlink:href="#md2483ddef1" y="303.64"/>
      </g>
     </g>
     <g id="text_5">
      <!-- 1000 -->
      <defs>
       <path d="M 12.40625 8.296875 
L 28.515625 8.296875 
L 28.515625 63.921875 
L 10.984375 60.40625 
L 10.984375 69.390625 
L 28.421875 72.90625 
L 38.28125 72.90625 
L 38.28125 8.296875 
L 54.390625 8.296875 
L 54.390625 0 
L 12.40625 0 
z
" id="DejaVuSans-49"/>
      </defs>
      <g transform="translate(253.742185 318.238437)scale(0.1 -0.1)">
       <use xlink:href="#DejaVuSans-49"/>
       <use x="63.623047" xlink:href="#DejaVuSans-48"/>
       <use x="127.246094" xlink:href="#DejaVuSans-48"/>
       <use x="190.869141" xlink:href="#DejaVuSans-48"/>
      </g>
     </g>
    </g>
    <g id="xtick_6">
     <g id="line2d_6">
      <g>
       <use style="stroke:#000000;stroke-width:0.8;" x="318.890154" xlink:href="#md2483ddef1" y="303.64"/>
      </g>
     </g>
     <g id="text_6">
      <!-- 1250 -->
      <g transform="translate(306.165154 318.238437)scale(0.1 -0.1)">
       <use xlink:href="#DejaVuSans-49"/>
       <use x="63.623047" xlink:href="#DejaVuSans-50"/>
       <use x="127.246094" xlink:href="#DejaVuSans-53"/>
       <use x="190.869141" xlink:href="#DejaVuSans-48"/>
      </g>
     </g>
    </g>
    <g id="xtick_7">
     <g id="line2d_7">
      <g>
       <use style="stroke:#000000;stroke-width:0.8;" x="371.313123" xlink:href="#md2483ddef1" y="303.64"/>
      </g>
     </g>
     <g id="text_7">
      <!-- 1500 -->
      <g transform="translate(358.588123 318.238437)scale(0.1 -0.1)">
       <use xlink:href="#DejaVuSans-49"/>
       <use x="63.623047" xlink:href="#DejaVuSans-53"/>
       <use x="127.246094" xlink:href="#DejaVuSans-48"/>
       <use x="190.869141" xlink:href="#DejaVuSans-48"/>
      </g>
     </g>
    </g>
    <g id="xtick_8">
     <g id="line2d_8">
      <g>
       <use style="stroke:#000000;stroke-width:0.8;" x="423.736092" xlink:href="#md2483ddef1" y="303.64"/>
      </g>
     </g>
     <g id="text_8">
      <!-- 1750 -->
      <g transform="translate(411.011092 318.238437)scale(0.1 -0.1)">
       <use xlink:href="#DejaVuSans-49"/>
       <use x="63.623047" xlink:href="#DejaVuSans-55"/>
       <use x="127.246094" xlink:href="#DejaVuSans-53"/>
       <use x="190.869141" xlink:href="#DejaVuSans-48"/>
      </g>
     </g>
    </g>
    <g id="text_9">
     <!-- Iteration -->
     <defs>
      <path d="M 9.8125 72.90625 
L 19.671875 72.90625 
L 19.671875 0 
L 9.8125 0 
z
" id="DejaVuSans-73"/>
      <path d="M 18.3125 70.21875 
L 18.3125 54.6875 
L 36.8125 54.6875 
L 36.8125 47.703125 
L 18.3125 47.703125 
L 18.3125 18.015625 
Q 18.3125 11.328125 20.140625 9.421875 
Q 21.96875 7.515625 27.59375 7.515625 
L 36.8125 7.515625 
L 36.8125 0 
L 27.59375 0 
Q 17.1875 0 13.234375 3.875 
Q 9.28125 7.765625 9.28125 18.015625 
L 9.28125 47.703125 
L 2.6875 47.703125 
L 2.6875 54.6875 
L 9.28125 54.6875 
L 9.28125 70.21875 
z
" id="DejaVuSans-116"/>
      <path d="M 56.203125 29.59375 
L 56.203125 25.203125 
L 14.890625 25.203125 
Q 15.484375 15.921875 20.484375 11.0625 
Q 25.484375 6.203125 34.421875 6.203125 
Q 39.59375 6.203125 44.453125 7.46875 
Q 49.3125 8.734375 54.109375 11.28125 
L 54.109375 2.78125 
Q 49.265625 0.734375 44.1875 -0.34375 
Q 39.109375 -1.421875 33.890625 -1.421875 
Q 20.796875 -1.421875 13.15625 6.1875 
Q 5.515625 13.8125 5.515625 26.8125 
Q 5.515625 40.234375 12.765625 48.109375 
Q 20.015625 56 32.328125 56 
Q 43.359375 56 49.78125 48.890625 
Q 56.203125 41.796875 56.203125 29.59375 
z
M 47.21875 32.234375 
Q 47.125 39.59375 43.09375 43.984375 
Q 39.0625 48.390625 32.421875 48.390625 
Q 24.90625 48.390625 20.390625 44.140625 
Q 15.875 39.890625 15.1875 32.171875 
z
" id="DejaVuSans-101"/>
      <path d="M 41.109375 46.296875 
Q 39.59375 47.171875 37.8125 47.578125 
Q 36.03125 48 33.890625 48 
Q 26.265625 48 22.1875 43.046875 
Q 18.109375 38.09375 18.109375 28.8125 
L 18.109375 0 
L 9.078125 0 
L 9.078125 54.6875 
L 18.109375 54.6875 
L 18.109375 46.1875 
Q 20.953125 51.171875 25.484375 53.578125 
Q 30.03125 56 36.53125 56 
Q 37.453125 56 38.578125 55.875 
Q 39.703125 55.765625 41.0625 55.515625 
z
" id="DejaVuSans-114"/>
      <path d="M 34.28125 27.484375 
Q 23.390625 27.484375 19.1875 25 
Q 14.984375 22.515625 14.984375 16.5 
Q 14.984375 11.71875 18.140625 8.90625 
Q 21.296875 6.109375 26.703125 6.109375 
Q 34.1875 6.109375 38.703125 11.40625 
Q 43.21875 16.703125 43.21875 25.484375 
L 43.21875 27.484375 
z
M 52.203125 31.203125 
L 52.203125 0 
L 43.21875 0 
L 43.21875 8.296875 
Q 40.140625 3.328125 35.546875 0.953125 
Q 30.953125 -1.421875 24.3125 -1.421875 
Q 15.921875 -1.421875 10.953125 3.296875 
Q 6 8.015625 6 15.921875 
Q 6 25.140625 12.171875 29.828125 
Q 18.359375 34.515625 30.609375 34.515625 
L 43.21875 34.515625 
L 43.21875 35.40625 
Q 43.21875 41.609375 39.140625 45 
Q 35.0625 48.390625 27.6875 48.390625 
Q 23 48.390625 18.546875 47.265625 
Q 14.109375 46.140625 10.015625 43.890625 
L 10.015625 52.203125 
Q 14.9375 54.109375 19.578125 55.046875 
Q 24.21875 56 28.609375 56 
Q 40.484375 56 46.34375 49.84375 
Q 52.203125 43.703125 52.203125 31.203125 
z
" id="DejaVuSans-97"/>
      <path d="M 9.421875 54.6875 
L 18.40625 54.6875 
L 18.40625 0 
L 9.421875 0 
z
M 9.421875 75.984375 
L 18.40625 75.984375 
L 18.40625 64.59375 
L 9.421875 64.59375 
z
" id="DejaVuSans-105"/>
      <path d="M 30.609375 48.390625 
Q 23.390625 48.390625 19.1875 42.75 
Q 14.984375 37.109375 14.984375 27.296875 
Q 14.984375 17.484375 19.15625 11.84375 
Q 23.34375 6.203125 30.609375 6.203125 
Q 37.796875 6.203125 41.984375 11.859375 
Q 46.1875 17.53125 46.1875 27.296875 
Q 46.1875 37.015625 41.984375 42.703125 
Q 37.796875 48.390625 30.609375 48.390625 
z
M 30.609375 56 
Q 42.328125 56 49.015625 48.375 
Q 55.71875 40.765625 55.71875 27.296875 
Q 55.71875 13.875 49.015625 6.21875 
Q 42.328125 -1.421875 30.609375 -1.421875 
Q 18.84375 -1.421875 12.171875 6.21875 
Q 5.515625 13.875 5.515625 27.296875 
Q 5.515625 40.765625 12.171875 48.375 
Q 18.84375 56 30.609375 56 
z
" id="DejaVuSans-111"/>
      <path d="M 54.890625 33.015625 
L 54.890625 0 
L 45.90625 0 
L 45.90625 32.71875 
Q 45.90625 40.484375 42.875 44.328125 
Q 39.84375 48.1875 33.796875 48.1875 
Q 26.515625 48.1875 22.3125 43.546875 
Q 18.109375 38.921875 18.109375 30.90625 
L 18.109375 0 
L 9.078125 0 
L 9.078125 54.6875 
L 18.109375 54.6875 
L 18.109375 46.1875 
Q 21.34375 51.125 25.703125 53.5625 
Q 30.078125 56 35.796875 56 
Q 45.21875 56 50.046875 50.171875 
Q 54.890625 44.34375 54.890625 33.015625 
z
" id="DejaVuSans-110"/>
     </defs>
     <g transform="translate(222.926406 331.916562)scale(0.1 -0.1)">
      <use xlink:href="#DejaVuSans-73"/>
      <use x="29.492188" xlink:href="#DejaVuSans-116"/>
      <use x="68.701172" xlink:href="#DejaVuSans-101"/>
      <use x="130.224609" xlink:href="#DejaVuSans-114"/>
      <use x="171.337891" xlink:href="#DejaVuSans-97"/>
      <use x="232.617188" xlink:href="#DejaVuSans-116"/>
      <use x="271.826172" xlink:href="#DejaVuSans-105"/>
      <use x="299.609375" xlink:href="#DejaVuSans-111"/>
      <use x="360.791016" xlink:href="#DejaVuSans-110"/>
     </g>
    </g>
   </g>
   <g id="matplotlib.axis_2">
    <g id="ytick_1">
     <g id="line2d_9">
      <defs>
       <path d="M 0 0 
L -3.5 0 
" id="m46ce6b5da4" style="stroke:#000000;stroke-width:0.8;"/>
      </defs>
      <g>
       <use style="stroke:#000000;stroke-width:0.8;" x="38.27" xlink:href="#m46ce6b5da4" y="303.64"/>
      </g>
     </g>
     <g id="text_10">
      <!-- 0 -->
      <g transform="translate(24.9075 307.439219)scale(0.1 -0.1)">
       <use xlink:href="#DejaVuSans-48"/>
      </g>
     </g>
    </g>
    <g id="ytick_2">
     <g id="line2d_10">
      <g>
       <use style="stroke:#000000;stroke-width:0.8;" x="38.27" xlink:href="#m46ce6b5da4" y="267.53"/>
      </g>
     </g>
     <g id="text_11">
      <!-- 1 -->
      <g transform="translate(24.9075 271.329219)scale(0.1 -0.1)">
       <use xlink:href="#DejaVuSans-49"/>
      </g>
     </g>
    </g>
    <g id="ytick_3">
     <g id="line2d_11">
      <g>
       <use style="stroke:#000000;stroke-width:0.8;" x="38.27" xlink:href="#m46ce6b5da4" y="231.42"/>
      </g>
     </g>
     <g id="text_12">
      <!-- 2 -->
      <g transform="translate(24.9075 235.219219)scale(0.1 -0.1)">
       <use xlink:href="#DejaVuSans-50"/>
      </g>
     </g>
    </g>
    <g id="ytick_4">
     <g id="line2d_12">
      <g>
       <use style="stroke:#000000;stroke-width:0.8;" x="38.27" xlink:href="#m46ce6b5da4" y="195.31"/>
      </g>
     </g>
     <g id="text_13">
      <!-- 3 -->
      <defs>
       <path d="M 40.578125 39.3125 
Q 47.65625 37.796875 51.625 33 
Q 55.609375 28.21875 55.609375 21.1875 
Q 55.609375 10.40625 48.1875 4.484375 
Q 40.765625 -1.421875 27.09375 -1.421875 
Q 22.515625 -1.421875 17.65625 -0.515625 
Q 12.796875 0.390625 7.625 2.203125 
L 7.625 11.71875 
Q 11.71875 9.328125 16.59375 8.109375 
Q 21.484375 6.890625 26.8125 6.890625 
Q 36.078125 6.890625 40.9375 10.546875 
Q 45.796875 14.203125 45.796875 21.1875 
Q 45.796875 27.640625 41.28125 31.265625 
Q 36.765625 34.90625 28.71875 34.90625 
L 20.21875 34.90625 
L 20.21875 43.015625 
L 29.109375 43.015625 
Q 36.375 43.015625 40.234375 45.921875 
Q 44.09375 48.828125 44.09375 54.296875 
Q 44.09375 59.90625 40.109375 62.90625 
Q 36.140625 65.921875 28.71875 65.921875 
Q 24.65625 65.921875 20.015625 65.03125 
Q 15.375 64.15625 9.8125 62.3125 
L 9.8125 71.09375 
Q 15.4375 72.65625 20.34375 73.4375 
Q 25.25 74.21875 29.59375 74.21875 
Q 40.828125 74.21875 47.359375 69.109375 
Q 53.90625 64.015625 53.90625 55.328125 
Q 53.90625 49.265625 50.4375 45.09375 
Q 46.96875 40.921875 40.578125 39.3125 
z
" id="DejaVuSans-51"/>
      </defs>
      <g transform="translate(24.9075 199.109219)scale(0.1 -0.1)">
       <use xlink:href="#DejaVuSans-51"/>
      </g>
     </g>
    </g>
    <g id="ytick_5">
     <g id="line2d_13">
      <g>
       <use style="stroke:#000000;stroke-width:0.8;" x="38.27" xlink:href="#m46ce6b5da4" y="159.2"/>
      </g>
     </g>
     <g id="text_14">
      <!-- 4 -->
      <defs>
       <path d="M 37.796875 64.3125 
L 12.890625 25.390625 
L 37.796875 25.390625 
z
M 35.203125 72.90625 
L 47.609375 72.90625 
L 47.609375 25.390625 
L 58.015625 25.390625 
L 58.015625 17.1875 
L 47.609375 17.1875 
L 47.609375 0 
L 37.796875 0 
L 37.796875 17.1875 
L 4.890625 17.1875 
L 4.890625 26.703125 
z
" id="DejaVuSans-52"/>
      </defs>
      <g transform="translate(24.9075 162.999219)scale(0.1 -0.1)">
       <use xlink:href="#DejaVuSans-52"/>
      </g>
     </g>
    </g>
    <g id="ytick_6">
     <g id="line2d_14">
      <g>
       <use style="stroke:#000000;stroke-width:0.8;" x="38.27" xlink:href="#m46ce6b5da4" y="123.09"/>
      </g>
     </g>
     <g id="text_15">
      <!-- 5 -->
      <g transform="translate(24.9075 126.889219)scale(0.1 -0.1)">
       <use xlink:href="#DejaVuSans-53"/>
      </g>
     </g>
    </g>
    <g id="ytick_7">
     <g id="line2d_15">
      <g>
       <use style="stroke:#000000;stroke-width:0.8;" x="38.27" xlink:href="#m46ce6b5da4" y="86.98"/>
      </g>
     </g>
     <g id="text_16">
      <!-- 6 -->
      <defs>
       <path d="M 33.015625 40.375 
Q 26.375 40.375 22.484375 35.828125 
Q 18.609375 31.296875 18.609375 23.390625 
Q 18.609375 15.53125 22.484375 10.953125 
Q 26.375 6.390625 33.015625 6.390625 
Q 39.65625 6.390625 43.53125 10.953125 
Q 47.40625 15.53125 47.40625 23.390625 
Q 47.40625 31.296875 43.53125 35.828125 
Q 39.65625 40.375 33.015625 40.375 
z
M 52.59375 71.296875 
L 52.59375 62.3125 
Q 48.875 64.0625 45.09375 64.984375 
Q 41.3125 65.921875 37.59375 65.921875 
Q 27.828125 65.921875 22.671875 59.328125 
Q 17.53125 52.734375 16.796875 39.40625 
Q 19.671875 43.65625 24.015625 45.921875 
Q 28.375 48.1875 33.59375 48.1875 
Q 44.578125 48.1875 50.953125 41.515625 
Q 57.328125 34.859375 57.328125 23.390625 
Q 57.328125 12.15625 50.6875 5.359375 
Q 44.046875 -1.421875 33.015625 -1.421875 
Q 20.359375 -1.421875 13.671875 8.265625 
Q 6.984375 17.96875 6.984375 36.375 
Q 6.984375 53.65625 15.1875 63.9375 
Q 23.390625 74.21875 37.203125 74.21875 
Q 40.921875 74.21875 44.703125 73.484375 
Q 48.484375 72.75 52.59375 71.296875 
z
" id="DejaVuSans-54"/>
      </defs>
      <g transform="translate(24.9075 90.779219)scale(0.1 -0.1)">
       <use xlink:href="#DejaVuSans-54"/>
      </g>
     </g>
    </g>
    <g id="ytick_8">
     <g id="line2d_16">
      <g>
       <use style="stroke:#000000;stroke-width:0.8;" x="38.27" xlink:href="#m46ce6b5da4" y="50.87"/>
      </g>
     </g>
     <g id="text_17">
      <!-- 7 -->
      <g transform="translate(24.9075 54.669219)scale(0.1 -0.1)">
       <use xlink:href="#DejaVuSans-55"/>
      </g>
     </g>
    </g>
    <g id="ytick_9">
     <g id="line2d_17">
      <g>
       <use style="stroke:#000000;stroke-width:0.8;" x="38.27" xlink:href="#m46ce6b5da4" y="14.76"/>
      </g>
     </g>
     <g id="text_18">
      <!-- 8 -->
      <defs>
       <path d="M 31.78125 34.625 
Q 24.75 34.625 20.71875 30.859375 
Q 16.703125 27.09375 16.703125 20.515625 
Q 16.703125 13.921875 20.71875 10.15625 
Q 24.75 6.390625 31.78125 6.390625 
Q 38.8125 6.390625 42.859375 10.171875 
Q 46.921875 13.96875 46.921875 20.515625 
Q 46.921875 27.09375 42.890625 30.859375 
Q 38.875 34.625 31.78125 34.625 
z
M 21.921875 38.8125 
Q 15.578125 40.375 12.03125 44.71875 
Q 8.5 49.078125 8.5 55.328125 
Q 8.5 64.0625 14.71875 69.140625 
Q 20.953125 74.21875 31.78125 74.21875 
Q 42.671875 74.21875 48.875 69.140625 
Q 55.078125 64.0625 55.078125 55.328125 
Q 55.078125 49.078125 51.53125 44.71875 
Q 48 40.375 41.703125 38.8125 
Q 48.828125 37.15625 52.796875 32.3125 
Q 56.78125 27.484375 56.78125 20.515625 
Q 56.78125 9.90625 50.3125 4.234375 
Q 43.84375 -1.421875 31.78125 -1.421875 
Q 19.734375 -1.421875 13.25 4.234375 
Q 6.78125 9.90625 6.78125 20.515625 
Q 6.78125 27.484375 10.78125 32.3125 
Q 14.796875 37.15625 21.921875 38.8125 
z
M 18.3125 54.390625 
Q 18.3125 48.734375 21.84375 45.5625 
Q 25.390625 42.390625 31.78125 42.390625 
Q 38.140625 42.390625 41.71875 45.5625 
Q 45.3125 48.734375 45.3125 54.390625 
Q 45.3125 60.0625 41.71875 63.234375 
Q 38.140625 66.40625 31.78125 66.40625 
Q 25.390625 66.40625 21.84375 63.234375 
Q 18.3125 60.0625 18.3125 54.390625 
z
" id="DejaVuSans-56"/>
      </defs>
      <g transform="translate(24.9075 18.559219)scale(0.1 -0.1)">
       <use xlink:href="#DejaVuSans-56"/>
      </g>
     </g>
    </g>
    <g id="ytick_10">
     <g id="line2d_18">
      <path clip-path="url(#pc124813bae)" d="M 38.27 285.585 
L 450 285.585 
" style="fill:none;stroke:#b0b0b0;stroke-linecap:square;stroke-width:0.8;"/>
     </g>
     <g id="line2d_19">
      <defs>
       <path d="M 0 0 
L -2 0 
" id="m171eeb015b" style="stroke:#000000;stroke-width:0.6;"/>
      </defs>
      <g>
       <use style="stroke:#000000;stroke-width:0.6;" x="38.27" xlink:href="#m171eeb015b" y="285.585"/>
      </g>
     </g>
    </g>
    <g id="ytick_11">
     <g id="line2d_20">
      <path clip-path="url(#pc124813bae)" d="M 38.27 249.475 
L 450 249.475 
" style="fill:none;stroke:#b0b0b0;stroke-linecap:square;stroke-width:0.8;"/>
     </g>
     <g id="line2d_21">
      <g>
       <use style="stroke:#000000;stroke-width:0.6;" x="38.27" xlink:href="#m171eeb015b" y="249.475"/>
      </g>
     </g>
    </g>
    <g id="ytick_12">
     <g id="line2d_22">
      <path clip-path="url(#pc124813bae)" d="M 38.27 213.365 
L 450 213.365 
" style="fill:none;stroke:#b0b0b0;stroke-linecap:square;stroke-width:0.8;"/>
     </g>
     <g id="line2d_23">
      <g>
       <use style="stroke:#000000;stroke-width:0.6;" x="38.27" xlink:href="#m171eeb015b" y="213.365"/>
      </g>
     </g>
    </g>
    <g id="ytick_13">
     <g id="line2d_24">
      <path clip-path="url(#pc124813bae)" d="M 38.27 177.255 
L 450 177.255 
" style="fill:none;stroke:#b0b0b0;stroke-linecap:square;stroke-width:0.8;"/>
     </g>
     <g id="line2d_25">
      <g>
       <use style="stroke:#000000;stroke-width:0.6;" x="38.27" xlink:href="#m171eeb015b" y="177.255"/>
      </g>
     </g>
    </g>
    <g id="ytick_14">
     <g id="line2d_26">
      <path clip-path="url(#pc124813bae)" d="M 38.27 141.145 
L 450 141.145 
" style="fill:none;stroke:#b0b0b0;stroke-linecap:square;stroke-width:0.8;"/>
     </g>
     <g id="line2d_27">
      <g>
       <use style="stroke:#000000;stroke-width:0.6;" x="38.27" xlink:href="#m171eeb015b" y="141.145"/>
      </g>
     </g>
    </g>
    <g id="ytick_15">
     <g id="line2d_28">
      <path clip-path="url(#pc124813bae)" d="M 38.27 105.035 
L 450 105.035 
" style="fill:none;stroke:#b0b0b0;stroke-linecap:square;stroke-width:0.8;"/>
     </g>
     <g id="line2d_29">
      <g>
       <use style="stroke:#000000;stroke-width:0.6;" x="38.27" xlink:href="#m171eeb015b" y="105.035"/>
      </g>
     </g>
    </g>
    <g id="ytick_16">
     <g id="line2d_30">
      <path clip-path="url(#pc124813bae)" d="M 38.27 68.925 
L 450 68.925 
" style="fill:none;stroke:#b0b0b0;stroke-linecap:square;stroke-width:0.8;"/>
     </g>
     <g id="line2d_31">
      <g>
       <use style="stroke:#000000;stroke-width:0.6;" x="38.27" xlink:href="#m171eeb015b" y="68.925"/>
      </g>
     </g>
    </g>
    <g id="ytick_17">
     <g id="line2d_32">
      <path clip-path="url(#pc124813bae)" d="M 38.27 32.815 
L 450 32.815 
" style="fill:none;stroke:#b0b0b0;stroke-linecap:square;stroke-width:0.8;"/>
     </g>
     <g id="line2d_33">
      <g>
       <use style="stroke:#000000;stroke-width:0.6;" x="38.27" xlink:href="#m171eeb015b" y="32.815"/>
      </g>
     </g>
    </g>
    <g id="text_19">
     <!-- Loss -->
     <defs>
      <path d="M 9.8125 72.90625 
L 19.671875 72.90625 
L 19.671875 8.296875 
L 55.171875 8.296875 
L 55.171875 0 
L 9.8125 0 
z
" id="DejaVuSans-76"/>
      <path d="M 44.28125 53.078125 
L 44.28125 44.578125 
Q 40.484375 46.53125 36.375 47.5 
Q 32.28125 48.484375 27.875 48.484375 
Q 21.1875 48.484375 17.84375 46.4375 
Q 14.5 44.390625 14.5 40.28125 
Q 14.5 37.15625 16.890625 35.375 
Q 19.28125 33.59375 26.515625 31.984375 
L 29.59375 31.296875 
Q 39.15625 29.25 43.1875 25.515625 
Q 47.21875 21.78125 47.21875 15.09375 
Q 47.21875 7.46875 41.1875 3.015625 
Q 35.15625 -1.421875 24.609375 -1.421875 
Q 20.21875 -1.421875 15.453125 -0.5625 
Q 10.6875 0.296875 5.421875 2 
L 5.421875 11.28125 
Q 10.40625 8.6875 15.234375 7.390625 
Q 20.0625 6.109375 24.8125 6.109375 
Q 31.15625 6.109375 34.5625 8.28125 
Q 37.984375 10.453125 37.984375 14.40625 
Q 37.984375 18.0625 35.515625 20.015625 
Q 33.0625 21.96875 24.703125 23.78125 
L 21.578125 24.515625 
Q 13.234375 26.265625 9.515625 29.90625 
Q 5.8125 33.546875 5.8125 39.890625 
Q 5.8125 47.609375 11.28125 51.796875 
Q 16.75 56 26.8125 56 
Q 31.78125 56 36.171875 55.265625 
Q 40.578125 54.546875 44.28125 53.078125 
z
" id="DejaVuSans-115"/>
     </defs>
     <g transform="translate(18.827813 170.167187)rotate(-90)scale(0.1 -0.1)">
      <use xlink:href="#DejaVuSans-76"/>
      <use x="53.962891" xlink:href="#DejaVuSans-111"/>
      <use x="115.144531" xlink:href="#DejaVuSans-115"/>
      <use x="167.244141" xlink:href="#DejaVuSans-115"/>
     </g>
    </g>
   </g>
   <g id="line2d_34">
    <path clip-path="url(#pc124813bae)" d="M 133.823402 -1 
L 133.941919 0.319214 
L 134.151611 1.124142 
L 134.361303 2.77668 
L 134.990378 18.134877 
L 135.409762 22.360974 
L 135.619454 21.764907 
L 136.248529 38.416167 
L 136.458221 39.792608 
L 136.667913 34.634222 
L 136.877605 36.16998 
L 137.926064 49.200743 
L 138.135756 48.923274 
L 138.345448 48.990691 
L 138.974524 53.963941 
L 139.184216 55.283798 
L 139.393908 60.868931 
L 139.813291 65.730384 
L 140.022983 66.373576 
L 140.232675 65.796141 
L 140.442367 66.853369 
L 140.652059 67.085051 
L 140.861751 70.515104 
L 141.071443 71.703303 
L 141.490826 75.822804 
L 141.700518 76.462385 
L 141.91021 77.999371 
L 142.119902 77.759023 
L 142.329594 77.830593 
L 142.539286 77.325125 
L 142.748978 78.290381 
L 143.168361 71.529109 
L 143.587745 66.972605 
L 144.007129 61.446005 
L 144.216821 58.921338 
L 144.426513 58.738658 
L 144.636204 55.906226 
L 144.845896 55.58853 
L 145.055588 52.79961 
L 145.26528 51.702913 
L 145.684664 43.995812 
L 145.894356 42.02955 
L 146.104048 41.347721 
L 146.313739 41.586408 
L 146.523431 40.19332 
L 146.733123 40.510113 
L 146.942815 40.138758 
L 147.571891 58.628233 
L 147.781583 58.126232 
L 149.249426 84.272544 
L 149.459118 82.277467 
L 149.878501 87.165064 
L 150.088193 88.341925 
L 150.507577 95.564322 
L 150.717269 96.666435 
L 150.926961 99.140259 
L 151.136653 99.696823 
L 151.97542 79.184645 
L 152.185112 77.212462 
L 152.394804 74.026874 
L 152.604496 73.870084 
L 152.814188 72.983439 
L 153.02388 71.094814 
L 153.233571 71.77166 
L 153.862647 65.396295 
L 154.282031 60.944726 
L 154.491723 59.800111 
L 154.701415 60.033454 
L 155.120798 55.553864 
L 155.33049 56.240243 
L 155.540182 54.51498 
L 155.749874 51.328272 
L 155.959566 50.85877 
L 156.37895 47.574674 
L 156.588641 48.302037 
L 157.217717 53.291862 
L 157.427409 52.530193 
L 157.637101 52.9369 
L 157.846793 56.629726 
L 158.056485 56.942185 
L 158.266176 53.762014 
L 158.475868 54.959169 
L 158.68556 55.439757 
L 158.895252 56.928066 
L 159.104944 55.106281 
L 159.314636 55.269029 
L 159.524328 56.079409 
L 160.572787 83.569591 
L 160.782479 84.678349 
L 161.201863 95.498674 
L 161.411555 97.407232 
L 161.621246 101.680634 
L 161.830938 102.747648 
L 162.460014 97.043821 
L 162.669706 96.564786 
L 163.08909 96.250701 
L 163.298782 93.843283 
L 163.718165 92.630998 
L 163.927857 92.607491 
L 164.137549 91.98351 
L 164.347241 94.055357 
L 164.976317 87.464416 
L 165.186008 87.115124 
L 165.3957 85.763382 
L 165.605392 85.857954 
L 165.815084 83.876851 
L 166.234468 88.987752 
L 166.653852 100.257358 
L 167.073235 109.01638 
L 167.282927 109.097303 
L 167.492619 111.049626 
L 167.912003 116.589297 
L 169.379846 92.315541 
L 169.79923 87.623914 
L 170.008922 87.493304 
L 170.218613 87.014954 
L 170.428305 85.629558 
L 170.637997 82.268151 
L 171.057381 86.606586 
L 171.267073 90.350652 
L 171.476765 91.002871 
L 171.686457 93.334204 
L 171.896148 93.512949 
L 172.10584 92.038072 
L 172.315532 95.047624 
L 172.525224 94.601485 
L 172.734916 97.274853 
L 172.944608 97.809642 
L 173.1543 99.401407 
L 173.783375 106.991006 
L 173.993067 107.916903 
L 174.412451 106.250246 
L 174.622143 104.54979 
L 175.041527 93.722568 
L 175.251218 91.912409 
L 175.670602 86.994588 
L 176.089986 85.189775 
L 176.299678 84.267128 
L 176.719062 90.756998 
L 177.138445 95.11905 
L 177.977213 112.439211 
L 178.186905 113.260641 
L 178.396597 117.394803 
L 178.606289 112.660638 
L 178.81598 110.942271 
L 179.445056 99.830827 
L 179.86444 90.802966 
L 180.283824 83.703234 
L 180.493515 80.525735 
L 180.703207 81.390605 
L 181.122591 87.037198 
L 181.332283 88.204779 
L 181.961359 99.333737 
L 182.380742 103.207762 
L 182.590434 104.156696 
L 183.429202 111.649594 
L 183.638894 110.606051 
L 183.848585 106.54234 
L 184.058277 105.643381 
L 184.267969 106.166435 
L 184.477661 101.711688 
L 184.687353 101.002885 
L 184.897045 102.465954 
L 185.316429 100.81681 
L 185.735812 97.87417 
L 186.364888 101.495317 
L 186.57458 101.286024 
L 186.784272 100.795217 
L 187.623039 110.639164 
L 187.832731 110.688345 
L 189.090882 121.824092 
L 189.510266 123.448717 
L 189.92965 122.158326 
L 190.139342 123.299113 
L 190.349034 123.376822 
L 190.558725 122.870957 
L 190.768417 121.799031 
L 190.978109 124.805189 
L 191.816877 119.054924 
L 192.445952 116.517222 
L 192.655644 112.830066 
L 192.865336 111.503998 
L 193.075028 108.663766 
L 193.28472 114.417786 
L 193.494412 116.61443 
L 193.704104 121.199714 
L 193.913796 122.699434 
L 194.123487 125.578448 
L 194.333179 126.634016 
L 194.752563 133.013786 
L 194.962255 136.06862 
L 195.171947 136.928327 
L 195.801022 123.764463 
L 197.059174 103.719693 
L 197.268866 102.282299 
L 197.688249 104.657398 
L 197.897941 103.4198 
L 198.107633 103.005979 
L 198.317325 105.055908 
L 198.527017 104.844123 
L 198.736709 107.248832 
L 198.946401 106.66923 
L 199.156092 106.915645 
L 199.365784 108.102978 
L 199.785168 101.401648 
L 200.414244 94.800234 
L 201.253011 86.150951 
L 201.462703 85.907461 
L 202.091779 99.265814 
L 202.720854 122.573302 
L 203.769314 142.134233 
L 203.979006 142.561523 
L 204.398389 148.520576 
L 204.817773 150.581518 
L 205.237157 151.815866 
L 205.656541 153.072277 
L 205.866232 154.679534 
L 206.075924 154.31717 
L 206.285616 153.500181 
L 206.705 155.810752 
L 206.914692 155.00279 
L 207.124384 152.842401 
L 207.334076 153.7007 
L 207.543768 150.946337 
L 207.963151 152.646432 
L 208.172843 152.27598 
L 208.382535 151.439058 
L 208.592227 151.170905 
L 208.801919 151.631669 
L 209.430994 160.339054 
L 209.640686 161.141779 
L 209.850378 161.331212 
L 210.269762 161.14196 
L 210.689146 157.500411 
L 211.108529 150.857362 
L 211.318221 149.051537 
L 211.527913 149.000947 
L 211.737605 145.111503 
L 211.947297 144.712957 
L 212.156989 141.879514 
L 212.366681 141.167569 
L 212.576373 141.108312 
L 212.786064 140.672717 
L 212.995756 143.423144 
L 213.41514 146.232213 
L 213.624832 144.524679 
L 213.834524 144.410897 
L 214.044216 143.480089 
L 214.253908 145.808354 
L 214.463599 146.125797 
L 215.092675 152.099907 
L 215.721751 161.624931 
L 215.931443 165.613678 
L 216.141134 166.092424 
L 216.350826 163.129129 
L 216.560518 163.054923 
L 216.77021 164.003172 
L 216.979902 163.760151 
L 217.189594 162.861085 
L 217.608978 165.844854 
L 217.818669 164.376693 
L 218.028361 167.642843 
L 218.238053 168.549348 
L 218.447745 167.101265 
L 218.657437 167.548813 
L 219.496204 175.012822 
L 219.705896 174.572099 
L 220.334972 178.794405 
L 220.754356 180.14315 
L 220.964048 176.273964 
L 221.173739 177.267602 
L 221.383431 180.291851 
L 221.593123 179.024896 
L 221.802815 179.320636 
L 222.012507 181.000329 
L 222.222199 179.102026 
L 222.431891 178.614361 
L 222.641583 175.266278 
L 222.851275 174.960029 
L 223.48035 168.141558 
L 224.319118 159.882551 
L 224.52881 156.63489 
L 224.948193 160.500104 
L 225.367577 165.929785 
L 225.577269 167.988705 
L 225.996653 174.68209 
L 226.206345 176.026574 
L 226.416036 179.175185 
L 226.83542 182.273134 
L 227.464496 185.90367 
L 228.093571 194.318672 
L 228.722647 198.043202 
L 228.932339 196.325341 
L 229.351723 200.896109 
L 229.561415 199.1837 
L 229.771106 200.299788 
L 229.980798 199.065909 
L 230.19049 198.828522 
L 230.400182 199.484388 
L 230.609874 198.137449 
L 230.819566 198.152615 
L 231.448641 204.470349 
L 231.658333 206.900407 
L 231.868025 207.348677 
L 232.497101 211.196378 
L 232.706793 210.974301 
L 232.916485 212.011669 
L 233.126176 211.465289 
L 233.335868 211.506996 
L 233.54556 210.956896 
L 233.755252 212.390427 
L 233.964944 212.051102 
L 234.174636 211.103431 
L 234.59402 213.51204 
L 235.013403 217.108596 
L 235.223095 218.953853 
L 235.642479 220.076116 
L 235.852171 218.847473 
L 236.061863 219.649512 
L 236.271555 222.076754 
L 236.481246 220.120892 
L 236.690938 220.687133 
L 237.110322 220.446171 
L 237.94909 225.487019 
L 238.158782 223.980582 
L 238.368473 224.553503 
L 238.578165 224.153837 
L 238.787857 224.145171 
L 238.997549 224.988484 
L 239.207241 225.035355 
L 240.465392 209.485378 
L 240.675084 209.055163 
L 240.884776 209.165371 
L 241.094468 207.713821 
L 241.30416 210.0154 
L 241.933235 213.30856 
L 242.352619 217.000446 
L 242.772003 220.385651 
L 242.981695 221.151399 
L 243.191387 224.750736 
L 243.401078 225.208611 
L 243.61077 223.957291 
L 243.820462 221.680086 
L 244.030154 220.793477 
L 244.239846 219.180046 
L 244.449538 218.515839 
L 244.65923 218.254041 
L 244.868922 218.473626 
L 245.078613 217.268563 
L 245.288305 215.070945 
L 245.497997 215.405396 
L 245.917381 220.486795 
L 246.127073 221.363798 
L 247.385224 232.844323 
L 247.594916 234.467106 
L 247.804608 233.953478 
L 248.0143 234.106981 
L 248.223992 236.15366 
L 248.433683 235.702177 
L 248.643375 237.117508 
L 248.853067 236.477458 
L 249.062759 238.440687 
L 249.272451 238.396596 
L 249.691835 242.874886 
L 249.901527 242.691014 
L 250.111218 241.631294 
L 250.32091 243.41845 
L 250.530602 241.736446 
L 250.740294 242.182116 
L 250.949986 241.429331 
L 251.159678 240.234198 
L 251.36937 240.177 
L 251.788754 242.860442 
L 252.208137 228.418176 
L 252.417829 227.522503 
L 252.627521 224.952771 
L 253.046905 223.04656 
L 253.256597 223.449295 
L 253.466289 223.222849 
L 253.885672 227.38413 
L 254.095364 215.325845 
L 254.305056 215.191769 
L 254.514748 218.508725 
L 254.72444 219.209873 
L 254.934132 216.482701 
L 255.353515 203.202382 
L 255.772899 179.832243 
L 255.982591 178.923679 
L 256.401975 181.00849 
L 257.660126 203.247953 
L 257.869818 203.956467 
L 258.07951 207.830168 
L 258.289202 202.79275 
L 258.918277 212.794498 
L 259.127969 214.480077 
L 259.337661 213.68674 
L 259.547353 209.177215 
L 259.966737 195.627262 
L 260.176429 190.301001 
L 260.38612 189.034732 
L 260.595812 189.51597 
L 261.015196 198.840005 
L 261.644272 213.491493 
L 262.273347 225.755063 
L 262.483039 226.677457 
L 262.692731 228.583596 
L 262.902423 228.393404 
L 263.321807 233.335347 
L 263.531499 232.150866 
L 263.74119 234.400664 
L 263.950882 234.317358 
L 264.160574 231.668798 
L 264.370266 231.673528 
L 265.418725 242.710441 
L 265.838109 248.140049 
L 266.467185 252.155662 
L 266.676877 252.7171 
L 267.096261 252.031769 
L 267.305952 252.57331 
L 267.515644 253.635703 
L 267.725336 253.843913 
L 268.14472 253.572691 
L 268.564104 255.533789 
L 268.773796 254.583157 
L 268.983487 255.371546 
L 269.193179 255.383896 
L 269.402871 256.184852 
L 269.612563 255.052912 
L 269.822255 256.774384 
L 270.031947 257.442166 
L 270.241639 256.049584 
L 270.661022 254.834266 
L 270.870714 255.984839 
L 271.080406 255.985705 
L 271.290098 256.525802 
L 272.338557 263.03936 
L 272.548249 263.217238 
L 272.757941 263.608598 
L 272.967633 262.59676 
L 273.387017 264.39771 
L 273.596709 265.030538 
L 273.806401 264.8987 
L 274.225784 267.079708 
L 274.435476 267.274594 
L 274.645168 266.741069 
L 275.064552 263.851294 
L 275.274244 263.267178 
L 275.483936 263.400822 
L 275.693627 264.01303 
L 275.903319 265.371525 
L 276.113011 265.774946 
L 276.532395 266.993478 
L 276.742087 267.236317 
L 276.951779 268.123179 
L 277.161471 267.443842 
L 277.580854 268.841118 
L 277.790546 268.366019 
L 278.000238 267.346742 
L 278.629314 271.329025 
L 278.839006 270.549229 
L 279.048697 271.114242 
L 279.468081 267.430409 
L 279.677773 268.385482 
L 280.097157 266.597531 
L 280.306849 266.952204 
L 280.726232 268.254836 
L 280.935924 266.626311 
L 281.145616 266.773026 
L 281.355308 267.537078 
L 281.774692 266.723916 
L 281.984384 267.002758 
L 282.403768 269.494131 
L 282.823151 271.013893 
L 283.032843 271.294143 
L 283.242535 271.806471 
L 283.452227 271.170682 
L 283.661919 271.900502 
L 283.871611 272.219714 
L 284.290994 270.679117 
L 284.500686 270.855514 
L 284.710378 268.436108 
L 284.92007 268.105774 
L 285.129762 266.798845 
L 285.339454 267.360608 
L 285.549146 265.249365 
L 285.758838 264.447181 
L 285.968529 262.974326 
L 286.178221 264.308338 
L 286.387913 264.265439 
L 286.597605 263.101181 
L 286.807297 263.484958 
L 287.226681 259.784441 
L 287.436373 260.254629 
L 287.646064 259.838967 
L 287.855756 257.952436 
L 288.065448 258.442088 
L 288.484832 261.821442 
L 288.694524 261.964257 
L 288.904216 261.720082 
L 289.323599 265.550341 
L 289.533291 266.252464 
L 289.742983 266.186527 
L 290.162367 264.565477 
L 291.001134 264.693668 
L 291.210826 265.245537 
L 291.420518 265.258284 
L 291.63021 266.954768 
L 291.839902 258.808785 
L 292.049594 256.435022 
L 292.259286 257.242947 
L 292.468978 255.103755 
L 292.678669 255.183847 
L 292.888361 252.487368 
L 293.098053 252.22604 
L 293.307745 250.258298 
L 293.517437 249.550434 
L 293.727129 249.385194 
L 294.146513 249.671583 
L 294.565896 251.170365 
L 294.775588 251.091861 
L 295.194972 252.194986 
L 295.404664 251.269234 
L 295.614356 251.127574 
L 295.824048 250.622865 
L 296.033739 241.198877 
L 296.243431 242.339808 
L 296.453123 245.023793 
L 296.662815 244.698189 
L 296.872507 241.33122 
L 297.082199 240.947046 
L 297.501583 241.984955 
L 297.711275 240.934118 
L 297.920966 243.333303 
L 298.130658 241.111202 
L 298.34035 240.812825 
L 298.550042 241.417523 
L 299.179118 244.729965 
L 299.598501 249.26957 
L 300.227577 255.035146 
L 300.437269 255.804505 
L 301.066345 260.743595 
L 301.276036 261.440265 
L 301.69542 263.292419 
L 301.905112 263.187086 
L 302.114804 263.732311 
L 302.534188 259.706119 
L 302.953571 257.983094 
L 303.582647 260.386467 
L 303.792339 259.984418 
L 304.002031 261.298967 
L 304.211723 261.738462 
L 304.421415 258.698758 
L 304.631106 257.292779 
L 305.05049 260.571278 
L 305.260182 260.934111 
L 305.469874 260.416222 
L 305.889258 263.342143 
L 306.09895 263.315963 
L 306.308641 263.703604 
L 306.937717 253.73208 
L 307.357101 252.668243 
L 307.986176 253.525386 
L 308.40556 256.629908 
L 308.615252 255.790892 
L 308.824944 257.539988 
L 309.034636 258.182927 
L 309.45402 261.007956 
L 309.663711 261.025 
L 309.873403 262.097828 
L 310.292787 262.510999 
L 310.712171 260.498191 
L 310.921863 261.255635 
L 311.131555 260.93682 
L 311.341246 262.256243 
L 311.550938 262.544617 
L 311.970322 264.009781 
L 312.180014 264.542692 
L 312.389706 264.378753 
L 312.599398 265.268395 
L 313.018782 260.40788 
L 313.438165 261.067718 
L 313.647857 260.951191 
L 313.857549 261.355876 
L 314.486625 260.750275 
L 314.696317 261.807251 
L 314.906008 261.568347 
L 315.325392 264.781957 
L 315.535084 264.411721 
L 315.744776 264.755488 
L 315.954468 264.699518 
L 316.16416 264.313177 
L 317.002927 269.701764 
L 317.212619 270.249119 
L 317.422311 270.10504 
L 317.841695 271.38644 
L 318.051387 271.39767 
L 318.680462 274.369234 
L 318.890154 274.950424 
L 319.099846 274.76175 
L 319.309538 273.959494 
L 319.51923 274.004198 
L 319.728922 274.288456 
L 319.938613 274.341429 
L 320.567689 278.143596 
L 320.777381 278.247231 
L 320.987073 278.181836 
L 321.196765 277.435731 
L 321.406457 277.767004 
L 321.616148 276.093089 
L 321.82584 276.008231 
L 322.035532 274.487025 
L 322.245224 274.696246 
L 322.454916 275.478136 
L 322.664608 274.975485 
L 323.083992 275.350595 
L 323.503375 258.361815 
L 323.713067 260.413044 
L 324.132451 261.957938 
L 324.551835 258.535432 
L 324.761527 258.831282 
L 324.971218 257.708152 
L 325.390602 247.206136 
L 325.600294 244.548946 
L 325.809986 244.853751 
L 326.019678 246.3313 
L 327.068137 259.016779 
L 327.277829 260.38412 
L 327.487521 253.837919 
L 327.697213 252.396263 
L 327.906905 253.71547 
L 328.326289 259.422583 
L 328.53598 259.494406 
L 328.955364 260.484 
L 329.165056 260.098237 
L 329.374748 260.689466 
L 329.58444 260.57395 
L 329.794132 260.185623 
L 330.213515 260.851853 
L 330.423207 262.257868 
L 330.632899 262.409169 
L 331.471667 268.460952 
L 331.89105 253.972031 
L 332.100742 254.753451 
L 332.520126 259.304684 
L 332.93951 261.350676 
L 333.149202 261.486233 
L 333.358894 261.899259 
L 333.568585 263.143538 
L 333.778277 258.861614 
L 333.987969 257.742204 
L 334.407353 248.622335 
L 334.617045 246.44306 
L 334.826737 246.71699 
L 335.036429 247.757933 
L 335.455812 251.358714 
L 335.665504 254.544519 
L 335.875196 255.257439 
L 336.504272 262.991117 
L 336.923655 264.870101 
L 337.133347 264.623795 
L 337.343039 264.773543 
L 337.762423 268.157122 
L 338.181807 263.691001 
L 338.391499 263.910153 
L 338.60119 265.265867 
L 339.230266 260.045011 
L 339.439958 260.220903 
L 339.859342 261.173412 
L 340.278725 251.97894 
L 340.698109 254.703078 
L 340.907801 252.452089 
L 341.117493 255.512159 
L 341.536877 257.511497 
L 342.375644 261.240577 
L 342.795028 263.771418 
L 343.00472 264.044049 
L 343.633796 267.230612 
L 344.053179 268.166042 
L 344.262871 269.509442 
L 344.682255 272.754214 
L 345.311331 275.744736 
L 345.521022 275.761491 
L 345.940406 277.30913 
L 346.35979 278.789387 
L 346.569482 279.0063 
L 346.988866 280.552674 
L 347.827633 282.143536 
L 348.037325 280.83166 
L 348.247017 281.283288 
L 348.666401 280.290732 
L 348.876092 280.5283 
L 349.085784 279.955523 
L 349.295476 280.189299 
L 349.505168 280.221076 
L 349.71486 279.842535 
L 349.924552 279.20086 
L 350.134244 279.03414 
L 350.343936 279.552319 
L 350.553627 277.857749 
L 350.763319 277.503979 
L 351.392395 279.905547 
L 351.602087 279.185405 
L 351.811779 279.564957 
L 352.021471 279.436803 
L 352.231162 278.681346 
L 352.440854 279.148826 
L 352.650546 277.880209 
L 352.860238 278.305693 
L 353.279622 275.844111 
L 353.489314 275.613585 
L 353.699006 275.926225 
L 354.328081 277.995292 
L 354.537773 278.114058 
L 354.747465 275.664608 
L 354.957157 275.236127 
L 355.166849 274.097976 
L 355.376541 274.310844 
L 355.795924 275.590727 
L 356.005616 275.377245 
L 356.215308 275.913478 
L 356.634692 277.204483 
L 357.054076 236.390722 
L 357.263768 235.14453 
L 357.683151 241.508376 
L 357.892843 242.941365 
L 358.312227 246.85067 
L 358.521919 245.22962 
L 358.731611 244.678906 
L 358.941303 244.887947 
L 359.150994 243.103282 
L 359.570378 241.93404 
L 359.78007 243.063056 
L 359.989762 243.302357 
L 360.828529 257.308595 
L 361.247913 242.133873 
L 361.457605 242.632263 
L 361.667297 241.171072 
L 362.086681 245.993346 
L 362.506064 248.595505 
L 362.925448 250.664319 
L 363.13514 232.504961 
L 363.344832 224.098878 
L 363.554524 224.531729 
L 364.183599 239.784448 
L 364.602983 245.6932 
L 364.812675 245.948497 
L 365.441751 247.640179 
L 365.651443 247.964952 
L 365.861134 245.933656 
L 366.280518 243.99408 
L 366.49021 245.0538 
L 367.119286 252.574646 
L 367.538669 249.850905 
L 369.216204 258.112404 
L 369.635588 228.914472 
L 369.84528 226.506223 
L 371.313123 250.362548 
L 371.732507 241.974772 
L 371.942199 240.74158 
L 372.151891 238.268695 
L 372.361583 232.991146 
L 372.780966 216.321831 
L 372.990658 211.886332 
L 373.410042 217.702425 
L 373.619734 217.877558 
L 373.829426 220.108073 
L 374.039118 223.535165 
L 374.877885 243.510061 
L 375.297269 249.004884 
L 375.506961 251.34167 
L 375.926345 242.531769 
L 377.184496 252.882809 
L 377.394188 253.878181 
L 377.60388 255.484137 
L 377.813571 247.602227 
L 378.023263 245.665576 
L 378.232955 245.190657 
L 379.491106 258.524635 
L 379.700798 258.556629 
L 379.91049 257.857648 
L 380.120182 257.922826 
L 380.749258 263.036183 
L 380.95895 263.360848 
L 381.168641 264.901806 
L 381.588025 263.405877 
L 382.007409 266.869801 
L 382.636485 270.902999 
L 382.846176 272.269762 
L 383.055868 272.869369 
L 383.684944 277.76343 
L 383.894636 278.788123 
L 384.104328 277.450464 
L 384.523711 276.814892 
L 384.733403 276.56855 
L 384.943095 276.991903 
L 385.152787 277.998686 
L 385.362479 278.137962 
L 385.991555 280.310954 
L 386.830322 276.639217 
L 387.249706 277.754871 
L 387.459398 277.821458 
L 387.878782 278.349459 
L 388.298165 278.470247 
L 388.507857 277.819111 
L 388.717549 276.757261 
L 389.136933 276.056546 
L 389.346625 276.070846 
L 389.556317 276.357162 
L 389.766008 277.035235 
L 390.185392 278.838966 
L 391.233852 282.152781 
L 391.443543 282.263024 
L 391.862927 283.183252 
L 392.072619 284.436846 
L 392.282311 284.907468 
L 392.701695 277.236946 
L 392.911387 276.289383 
L 394.169538 281.648866 
L 394.37923 281.29719 
L 394.588922 273.110584 
L 394.798613 269.587909 
L 395.008305 269.956303 
L 395.217997 270.890072 
L 395.427689 269.972444 
L 396.056765 264.20983 
L 396.266457 264.624048 
L 396.476148 265.990522 
L 396.68584 264.984137 
L 396.895532 265.167142 
L 398.363375 276.315924 
L 398.573067 276.867143 
L 398.992451 278.633861 
L 399.202143 279.041507 
L 399.621527 280.860187 
L 400.250602 283.689622 
L 400.669986 285.223322 
L 401.08937 274.614999 
L 401.299062 272.081774 
L 401.508754 271.594 
L 401.718445 271.63094 
L 402.137829 270.039176 
L 402.557213 271.764114 
L 402.766905 271.314111 
L 403.186289 254.335514 
L 403.39598 251.041524 
L 403.605672 252.055601 
L 404.025056 255.48244 
L 404.44444 257.252588 
L 404.863824 260.349779 
L 405.283207 244.641063 
L 405.492899 241.698314 
L 405.702591 241.523903 
L 405.912283 242.452436 
L 406.541359 231.963889 
L 406.75105 232.597619 
L 407.79951 244.007729 
L 408.428585 252.808278 
L 409.267353 261.945625 
L 409.686737 265.538425 
L 410.944888 276.611268 
L 411.993347 282.34828 
L 412.412731 283.456929 
L 412.622423 284.121714 
L 412.832115 284.380082 
L 413.041807 285.100007 
L 413.251499 285.400803 
L 413.670882 282.538941 
L 414.090266 281.852382 
L 414.50965 280.827688 
L 414.719342 281.239667 
L 415.138725 280.826821 
L 415.348417 281.869389 
L 415.767801 263.721731 
L 415.977493 262.164487 
L 417.025952 268.387468 
L 417.445336 268.536458 
L 417.86472 259.248424 
L 418.074412 259.403372 
L 418.493796 259.204587 
L 418.913179 256.460082 
L 419.122871 257.398545 
L 419.332563 258.951456 
L 419.542255 259.183462 
L 419.751947 260.317497 
L 420.381022 266.236143 
L 421.429482 276.515324 
L 422.058557 280.585029 
L 422.268249 281.054026 
L 423.316709 285.048983 
L 425.203936 289.41786 
L 425.833011 289.523734 
L 426.042703 289.508424 
L 426.252395 289.840816 
L 426.881471 291.334831 
L 427.091162 291.581715 
L 427.300854 291.08932 
L 427.92993 291.685207 
L 428.349314 292.482227 
L 428.768697 292.849249 
L 429.188081 292.855099 
L 429.607465 293.334459 
L 430.026849 293.58907 
L 430.446232 288.816809 
L 431.075308 287.832053 
L 431.285 288.454301 
L 431.285 288.454301 
" style="fill:none;stroke:#1f77b4;stroke-linecap:square;stroke-width:1.5;"/>
   </g>
   <g id="patch_3">
    <path d="M 38.27 303.64 
L 38.27 14.76 
" style="fill:none;stroke:#000000;stroke-linecap:square;stroke-linejoin:miter;stroke-width:0.8;"/>
   </g>
   <g id="patch_4">
    <path d="M 450 303.64 
L 450 14.76 
" style="fill:none;stroke:#000000;stroke-linecap:square;stroke-linejoin:miter;stroke-width:0.8;"/>
   </g>
   <g id="patch_5">
    <path d="M 38.27 303.64 
L 450 303.64 
" style="fill:none;stroke:#000000;stroke-linecap:square;stroke-linejoin:miter;stroke-width:0.8;"/>
   </g>
   <g id="patch_6">
    <path d="M 38.27 14.76 
L 450 14.76 
" style="fill:none;stroke:#000000;stroke-linecap:square;stroke-linejoin:miter;stroke-width:0.8;"/>
   </g>
  </g>
 </g>
 <defs>
  <clipPath id="pc124813bae">
   <rect height="288.88" width="411.73" x="38.27" y="14.76"/>
  </clipPath>
 </defs>
</svg>
